<?xml version="1.0" encoding="UTF-8" ?>
<!DOCTYPE svg PUBLIC "-//W3C//DTD SVG 1.1//EN" "http://www.w3.org/Graphics/SVG/1.1/DTD/svg11.dtd">
<svg width="468pt" height="120pt" viewBox="0 0 1253 321" version="1.1" xmlns="http://www.w3.org/2000/svg">
<g id="#f7f16cff">
<path fill="#f7f16c" opacity="1.00" d=" M 0.00 0.00 L 1253.00 0.00 L 1253.00 321.00 L 0.00 321.00 L 0.00 0.00 M 874.28 85.13 C 866.95 87.09 862.69 94.71 862.86 101.99 C 862.76 121.33 862.86 140.67 862.82 160.01 C 862.81 171.78 863.66 183.77 867.79 194.90 C 871.65 205.67 878.73 215.49 888.58 221.52 C 902.13 230.07 918.92 231.64 934.52 229.71 C 949.07 227.73 963.65 220.56 971.74 207.93 C 971.35 207.60 970.57 206.95 970.18 206.62 C 963.23 209.53 955.96 211.74 948.41 212.30 C 931.88 213.79 913.70 210.46 901.39 198.57 C 889.55 187.43 885.10 170.77 884.38 155.00 C 884.25 132.02 884.58 109.02 884.23 86.05 C 881.67 83.56 877.45 84.67 874.28 85.13 M 961.54 85.30 C 954.88 87.29 950.68 94.24 950.82 101.00 C 950.82 122.67 950.84 144.35 950.81 166.02 C 950.85 173.21 949.59 180.39 946.89 187.07 C 947.91 187.40 949.00 187.96 950.13 187.56 C 956.73 186.20 962.73 182.08 966.28 176.33 C 970.65 169.39 971.77 161.01 972.16 152.97 C 972.24 130.58 972.09 108.19 972.23 85.80 C 968.97 84.03 965.00 84.35 961.54 85.30 M 304.02 90.02 C 299.70 93.67 297.79 99.49 297.81 105.01 C 297.84 140.33 297.83 175.65 297.81 210.97 C 297.80 215.81 299.31 220.78 302.54 224.45 C 306.21 228.36 311.65 230.37 316.96 230.37 C 341.31 230.37 365.66 230.35 390.01 230.39 C 394.37 230.54 398.84 228.97 401.93 225.87 C 405.06 222.42 407.12 217.14 405.23 212.62 C 382.48 212.65 359.73 212.61 336.99 212.65 C 332.08 212.66 326.68 211.47 323.33 207.62 C 320.38 204.57 319.14 200.21 319.17 196.05 C 319.20 160.71 319.14 125.37 319.20 90.03 C 319.10 88.44 319.54 86.52 318.01 85.46 C 313.02 85.27 307.79 86.64 304.02 90.02 M 518.28 86.21 C 510.94 88.08 506.93 95.73 507.02 102.91 C 506.95 138.94 507.04 174.98 506.98 211.01 C 506.96 216.12 507.77 221.69 511.45 225.54 C 515.90 230.54 523.51 231.53 529.60 229.38 C 536.19 227.10 540.39 219.66 539.31 212.86 C 537.16 211.65 534.66 210.96 532.88 209.18 C 529.73 206.44 528.38 202.16 528.37 198.09 C 528.29 161.04 528.52 123.98 528.26 86.94 C 525.83 84.47 521.41 85.72 518.28 86.21 M 608.19 87.05 C 602.53 89.57 599.34 95.89 599.44 101.92 C 599.52 113.86 599.25 125.81 599.56 137.74 C 603.91 145.81 608.98 153.50 613.59 161.44 C 615.55 164.41 616.79 168.13 620.05 169.97 C 620.85 166.02 620.52 161.97 620.57 157.97 C 620.56 137.97 620.56 117.97 620.56 97.97 C 620.53 93.93 620.78 89.87 620.20 85.86 C 616.19 85.60 611.89 85.10 608.19 87.05 M 742.77 86.59 C 736.51 88.83 732.74 95.50 732.82 101.97 C 732.82 139.30 732.83 176.63 732.82 213.96 C 732.80 218.49 734.55 223.03 737.78 226.24 C 742.27 230.64 749.40 231.40 755.17 229.43 C 761.79 227.11 765.72 219.87 765.28 213.06 C 762.91 211.63 759.99 211.07 758.05 208.98 C 755.11 206.16 754.03 201.94 754.16 197.98 C 754.23 160.92 754.09 123.86 754.23 86.80 C 750.72 84.94 746.40 85.32 742.77 86.59 M 1091.59 89.42 C 1083.37 93.47 1075.98 99.68 1071.68 107.88 C 1063.63 122.53 1065.77 142.35 1077.62 154.36 C 1088.05 164.83 1102.81 169.21 1117.04 171.45 C 1125.24 173.23 1134.21 173.50 1141.38 178.34 C 1144.92 180.52 1145.57 184.78 1146.82 188.39 C 1152.47 187.28 1158.53 185.95 1162.77 181.75 C 1166.82 178.01 1168.47 171.77 1166.13 166.66 C 1163.56 160.69 1156.92 158.16 1151.08 156.58 C 1138.00 153.49 1124.22 152.72 1111.90 146.92 C 1102.77 142.83 1094.48 135.77 1090.87 126.24 C 1086.12 114.24 1087.97 99.99 1095.59 89.59 C 1094.32 88.79 1092.85 88.43 1091.59 89.42 M 156.04 94.62 C 144.35 96.81 133.87 104.20 127.58 114.27 C 128.89 115.03 130.29 115.58 131.74 114.78 C 147.76 109.37 166.58 113.99 178.37 126.09 C 183.99 126.17 189.63 126.33 195.24 126.07 C 195.55 125.80 196.16 125.26 196.46 125.00 C 196.75 119.29 196.45 113.57 196.58 107.86 C 186.61 96.77 170.64 91.55 156.04 94.62 M 1132.25 94.17 C 1127.16 94.83 1121.94 96.46 1118.22 100.16 C 1115.46 102.87 1114.27 106.93 1114.91 110.72 C 1116.02 112.52 1118.21 111.88 1119.98 112.01 C 1126.20 111.79 1132.45 113.15 1137.95 116.09 C 1143.61 118.75 1147.98 124.01 1154.44 124.89 C 1163.89 126.24 1172.72 117.12 1172.15 107.86 C 1170.06 105.54 1166.69 104.76 1164.33 102.68 C 1155.27 95.78 1143.51 92.83 1132.25 94.17 M 347.25 98.10 C 346.92 98.40 346.28 98.99 345.95 99.29 C 345.70 104.46 345.74 109.66 345.93 114.82 C 346.92 116.77 349.22 116.05 350.97 116.20 C 364.72 115.99 378.50 116.49 392.23 115.95 C 400.49 115.59 407.35 107.53 405.83 99.30 C 404.84 97.52 402.65 98.13 401.01 97.98 C 383.09 98.10 365.16 97.85 347.25 98.10 M 94.46 108.47 C 79.49 123.64 71.86 145.73 74.54 166.89 C 76.40 184.40 85.16 201.03 98.43 212.58 C 110.88 223.60 127.30 230.14 143.94 230.38 C 163.21 231.07 182.77 223.50 196.27 209.67 C 195.76 209.38 194.75 208.80 194.24 208.51 C 188.90 210.02 183.64 211.93 178.10 212.61 C 157.91 215.91 136.46 210.32 120.36 197.72 C 106.96 187.38 97.16 172.43 93.18 155.96 C 89.42 140.81 90.61 124.56 96.27 110.04 C 95.82 109.65 94.92 108.86 94.46 108.47 M 554.82 118.07 C 554.83 132.71 554.82 147.35 554.81 161.99 C 554.71 163.45 555.05 164.88 555.89 166.09 C 566.19 183.16 576.40 200.27 586.68 217.35 C 590.00 222.95 594.96 228.07 601.50 229.60 C 608.11 231.12 615.44 230.75 621.44 227.36 C 626.48 224.55 629.92 219.24 630.84 213.59 C 629.53 211.66 626.83 212.98 624.94 212.60 C 617.13 212.89 610.92 207.02 607.39 200.60 C 590.47 172.62 573.94 144.40 556.77 116.58 C 556.28 116.95 555.31 117.70 554.82 118.07 M 149.46 148.48 C 143.46 155.25 144.56 166.84 151.88 172.23 C 157.98 177.61 166.53 174.81 173.83 175.66 C 176.56 177.29 174.58 181.00 176.62 183.16 C 183.73 181.23 191.02 178.55 196.39 173.34 C 196.77 169.26 196.57 165.13 196.52 161.04 C 196.68 159.80 195.24 158.93 194.15 159.04 C 188.39 158.84 182.62 159.17 176.86 158.95 C 172.07 158.74 167.77 155.79 165.02 151.98 C 163.05 149.13 162.54 145.61 161.24 142.46 C 156.80 143.15 152.38 144.93 149.46 148.48 M 345.86 155.66 C 345.89 161.11 345.65 166.56 345.93 172.00 C 346.20 172.27 346.74 172.80 347.01 173.07 C 359.99 173.35 372.98 173.07 385.97 173.20 C 391.16 173.40 396.67 171.49 399.80 167.17 C 402.40 163.93 402.75 159.59 402.43 155.60 C 383.58 155.37 364.70 155.24 345.86 155.66 M 1064.45 205.22 C 1066.50 211.75 1072.85 215.27 1078.25 218.73 C 1097.32 230.46 1121.21 233.27 1142.76 227.76 C 1154.48 224.76 1165.58 218.14 1172.35 207.92 C 1171.96 207.50 1171.19 206.68 1170.80 206.27 C 1144.45 217.82 1111.86 213.49 1089.56 195.27 C 1087.65 193.56 1086.18 191.33 1085.60 188.83 C 1085.01 187.07 1085.20 184.42 1082.81 184.11 C 1071.38 181.36 1060.57 194.42 1064.45 205.22 Z" />
</g>
<g id="#000000ff">
<path fill="#000000" opacity="1.00" d=" M 874.28 85.13 C 877.45 84.67 881.67 83.56 884.23 86.05 C 884.58 109.02 884.25 132.02 884.38 155.00 C 885.10 170.77 889.55 187.43 901.39 198.57 C 913.70 210.46 931.88 213.79 948.41 212.30 C 955.96 211.74 963.23 209.53 970.18 206.62 C 970.57 206.95 971.35 207.60 971.74 207.93 C 963.65 220.56 949.07 227.73 934.52 229.71 C 918.92 231.64 902.13 230.07 888.58 221.52 C 878.73 215.49 871.65 205.67 867.79 194.90 C 863.66 183.77 862.81 171.78 862.82 160.01 C 862.86 140.67 862.76 121.33 862.86 101.99 C 862.69 94.71 866.95 87.09 874.28 85.13 Z" />
<path fill="#000000" opacity="1.00" d=" M 961.54 85.30 C 965.00 84.35 968.97 84.03 972.23 85.80 C 972.09 108.19 972.24 130.58 972.16 152.97 C 971.77 161.01 970.65 169.39 966.28 176.33 C 962.73 182.08 956.73 186.20 950.13 187.56 C 949.00 187.96 947.91 187.40 946.89 187.07 C 949.59 180.39 950.85 173.21 950.81 166.02 C 950.84 144.35 950.82 122.67 950.82 101.00 C 950.68 94.24 954.88 87.29 961.54 85.30 Z" />
<path fill="#000000" opacity="1.00" d=" M 304.02 90.02 C 307.79 86.64 313.02 85.27 318.01 85.46 C 319.54 86.52 319.10 88.44 319.20 90.03 C 319.14 125.37 319.20 160.71 319.17 196.05 C 319.14 200.21 320.38 204.57 323.33 207.62 C 326.68 211.47 332.08 212.66 336.99 212.65 C 359.73 212.61 382.48 212.65 405.23 212.62 C 407.12 217.14 405.06 222.42 401.93 225.87 C 398.84 228.97 394.37 230.54 390.01 230.39 C 365.66 230.35 341.31 230.37 316.96 230.37 C 311.65 230.37 306.21 228.36 302.54 224.45 C 299.31 220.78 297.80 215.81 297.81 210.97 C 297.83 175.65 297.84 140.33 297.81 105.01 C 297.79 99.49 299.70 93.67 304.02 90.02 Z" />
<path fill="#000000" opacity="1.00" d=" M 518.28 86.21 C 521.41 85.72 525.83 84.47 528.26 86.94 C 528.52 123.98 528.29 161.04 528.37 198.09 C 528.38 202.16 529.73 206.44 532.88 209.18 C 534.66 210.96 537.16 211.65 539.31 212.86 C 540.39 219.66 536.19 227.10 529.60 229.38 C 523.51 231.53 515.90 230.54 511.45 225.54 C 507.77 221.69 506.96 216.12 506.98 211.01 C 507.04 174.98 506.95 138.94 507.02 102.91 C 506.93 95.73 510.94 88.08 518.28 86.21 Z" />
<path fill="#000000" opacity="1.00" d=" M 608.19 87.05 C 611.89 85.10 616.19 85.60 620.20 85.86 C 620.78 89.87 620.53 93.93 620.56 97.97 C 620.56 117.97 620.56 137.97 620.57 157.97 C 620.52 161.97 620.85 166.02 620.05 169.97 C 616.79 168.13 615.55 164.41 613.59 161.44 C 608.98 153.50 603.91 145.81 599.56 137.74 C 599.25 125.81 599.52 113.86 599.44 101.92 C 599.34 95.89 602.53 89.57 608.19 87.05 Z" />
<path fill="#000000" opacity="1.00" d=" M 742.77 86.59 C 746.40 85.32 750.72 84.94 754.23 86.80 C 754.09 123.86 754.23 160.92 754.16 197.98 C 754.03 201.94 755.11 206.16 758.05 208.98 C 759.99 211.07 762.91 211.63 765.28 213.06 C 765.72 219.87 761.79 227.11 755.17 229.43 C 749.40 231.40 742.27 230.64 737.78 226.24 C 734.55 223.03 732.80 218.49 732.82 213.96 C 732.83 176.63 732.82 139.30 732.82 101.97 C 732.74 95.50 736.51 88.83 742.77 86.59 Z" />
<path fill="#000000" opacity="1.00" d=" M 1091.59 89.42 C 1092.85 88.43 1094.32 88.79 1095.59 89.59 C 1087.97 99.99 1086.12 114.24 1090.87 126.24 C 1094.48 135.77 1102.77 142.83 1111.90 146.92 C 1124.22 152.72 1138.00 153.49 1151.08 156.58 C 1156.92 158.16 1163.56 160.69 1166.13 166.66 C 1168.47 171.77 1166.82 178.01 1162.77 181.75 C 1158.53 185.95 1152.47 187.28 1146.82 188.39 C 1145.57 184.78 1144.92 180.52 1141.38 178.34 C 1134.21 173.50 1125.24 173.23 1117.04 171.45 C 1102.81 169.21 1088.05 164.83 1077.62 154.36 C 1065.77 142.35 1063.63 122.53 1071.68 107.88 C 1075.98 99.68 1083.37 93.47 1091.59 89.42 Z" />
<path fill="#000000" opacity="1.00" d=" M 156.04 94.62 C 170.64 91.55 186.61 96.77 196.58 107.86 C 196.45 113.57 196.75 119.29 196.46 125.00 C 196.16 125.26 195.55 125.80 195.24 126.07 C 189.63 126.33 183.99 126.17 178.37 126.09 C 166.58 113.99 147.76 109.37 131.74 114.78 C 130.29 115.58 128.89 115.03 127.58 114.27 C 133.87 104.20 144.35 96.81 156.04 94.62 Z" />
<path fill="#000000" opacity="1.00" d=" M 1132.25 94.17 C 1143.51 92.83 1155.27 95.78 1164.33 102.68 C 1166.69 104.76 1170.06 105.54 1172.15 107.86 C 1172.72 117.12 1163.89 126.24 1154.44 124.89 C 1147.98 124.01 1143.61 118.75 1137.95 116.09 C 1132.45 113.15 1126.20 111.79 1119.98 112.01 C 1118.21 111.88 1116.02 112.52 1114.91 110.72 C 1114.27 106.93 1115.46 102.87 1118.22 100.16 C 1121.94 96.46 1127.16 94.83 1132.25 94.17 Z" />
<path fill="#000000" opacity="1.00" d=" M 347.25 98.10 C 365.16 97.85 383.09 98.10 401.01 97.98 C 402.65 98.13 404.84 97.52 405.83 99.30 C 407.35 107.53 400.49 115.59 392.23 115.95 C 378.50 116.49 364.72 115.99 350.97 116.20 C 349.22 116.05 346.92 116.77 345.93 114.82 C 345.74 109.66 345.70 104.46 345.95 99.29 C 346.28 98.99 346.92 98.40 347.25 98.10 Z" />
<path fill="#000000" opacity="1.00" d=" M 94.46 108.47 C 94.92 108.86 95.82 109.65 96.27 110.04 C 90.61 124.56 89.42 140.81 93.18 155.96 C 97.16 172.43 106.96 187.38 120.36 197.72 C 136.46 210.32 157.91 215.91 178.10 212.61 C 183.64 211.93 188.90 210.02 194.24 208.51 C 194.75 208.80 195.76 209.38 196.27 209.67 C 182.77 223.50 163.21 231.07 143.94 230.38 C 127.30 230.14 110.88 223.60 98.43 212.58 C 85.16 201.03 76.40 184.40 74.54 166.89 C 71.86 145.73 79.49 123.64 94.46 108.47 Z" />
<path fill="#000000" opacity="1.00" d=" M 554.82 118.07 C 555.31 117.70 556.28 116.95 556.77 116.58 C 573.94 144.40 590.47 172.62 607.39 200.60 C 610.92 207.02 617.13 212.89 624.94 212.60 C 626.83 212.98 629.53 211.66 630.84 213.59 C 629.92 219.24 626.48 224.55 621.44 227.36 C 615.44 230.75 608.11 231.12 601.50 229.60 C 594.96 228.07 590.00 222.95 586.68 217.35 C 576.40 200.27 566.19 183.16 555.89 166.09 C 555.05 164.88 554.71 163.45 554.81 161.99 C 554.82 147.35 554.83 132.71 554.82 118.07 Z" />
<path fill="#000000" opacity="1.00" d=" M 149.46 148.48 C 152.38 144.93 156.80 143.15 161.24 142.46 C 162.54 145.61 163.05 149.13 165.02 151.98 C 167.77 155.79 172.07 158.74 176.86 158.95 C 182.62 159.17 188.39 158.84 194.15 159.04 C 195.24 158.93 196.68 159.80 196.52 161.04 C 196.57 165.13 196.77 169.26 196.39 173.34 C 191.02 178.55 183.73 181.23 176.62 183.16 C 174.58 181.00 176.56 177.29 173.83 175.66 C 166.53 174.81 157.98 177.61 151.88 172.23 C 144.56 166.84 143.46 155.25 149.46 148.48 Z" />
<path fill="#000000" opacity="1.00" d=" M 345.86 155.66 C 364.70 155.24 383.58 155.37 402.43 155.60 C 402.75 159.59 402.40 163.93 399.80 167.17 C 396.67 171.49 391.16 173.40 385.97 173.20 C 372.98 173.07 359.99 173.35 347.01 173.07 C 346.74 172.80 346.20 172.27 345.93 172.00 C 345.65 166.56 345.89 161.11 345.86 155.66 Z" />
<path fill="#000000" opacity="1.00" d=" M 1064.45 205.22 C 1060.57 194.42 1071.38 181.36 1082.81 184.11 C 1085.20 184.42 1085.01 187.07 1085.60 188.83 C 1086.18 191.33 1087.65 193.56 1089.56 195.27 C 1111.86 213.49 1144.45 217.82 1170.80 206.27 C 1171.19 206.68 1171.96 207.50 1172.35 207.92 C 1165.58 218.14 1154.48 224.76 1142.76 227.76 C 1121.21 233.27 1097.32 230.46 1078.25 218.73 C 1072.85 215.27 1066.50 211.75 1064.45 205.22 Z" />
</g>
</svg>
