<?xml version="1.0" encoding="UTF-8" standalone="no"?>
<svg
   xmlns:svg="http://www.w3.org/2000/svg"
   xmlns="http://www.w3.org/2000/svg"
   xmlns:xlink="http://www.w3.org/1999/xlink"
   version="1.1"
   viewBox="0 0 260 36"
   style="fill:#a00000;font-family:Georgia"
   id="svg2">
  <path
     d="m 18.4552,21.5923 -0.4861,6.83766 H 0 v -1.15041 q 0.3889,-0.0324 1.118,-0.11342 0.7453,-0.081 1.037,-0.21064 0.4861,-0.21064 0.6967,-0.61571 0.2269,-0.40508 0.2269,-1.03699 V 8.8406 q 0,-0.551 -0.1945,-0.9722 Q 2.7059,7.4471 2.155,7.1878 1.7823,6.9934 1.1018,6.8152 0.4375,6.6207 0,6.5883 V 5.4379 H 9.7056 V 6.5883 Q 9.2519,6.6045 8.5228,6.7504 7.8098,6.8962 7.4858,7.0096 6.9349,7.2041 6.7242,7.6739 6.5298,8.1438 6.5298,8.6785 v 15.44147 q 0,1.0694 0.0972,1.66891 0.1134,0.5833 0.5023,0.90736 0.3727,0.29166 1.1018,0.38887 0.7453,0.081 2.074,0.081 0.5995,0 1.2476,-0.0324 0.6481,-0.0324 1.2314,-0.12962 0.5672,-0.0972 1.037,-0.25925 0.4861,-0.17823 0.713,-0.43748 0.6643,-0.74534 1.5393,-2.25221 0.8911,-1.52308 1.2314,-2.46286 z"
     id="path4" />
  <path
     d="M 27.3668,28.42996 H 19.638 v -1.06939 q 0.3727,-0.0324 0.7615,-0.0648 0.4051,-0.0324 0.6968,-0.12962 0.4537,-0.14583 0.6643,-0.50229 0.2268,-0.37267 0.2268,-0.95598 V 15.8403 q 0,-0.5185 -0.243,-0.9398 -0.2268,-0.4375 -0.6481,-0.7291 -0.3079,-0.1945 -0.8912,-0.3241 -0.5833,-0.1458 -1.0694,-0.1782 v -1.0532 l 5.6387,-0.3565 0.2268,0.2268 v 13.02725 q 0,0.5671 0.2106,0.93977 0.2269,0.37267 0.6968,0.5509 0.3564,0.14583 0.6967,0.24304 0.3403,0.081 0.7615,0.11343 z M 25.3253,5.9564 q 0,0.9236 -0.6158,1.6203 -0.5995,0.6805 -1.4906,0.6805 -0.8264,0 -1.4421,-0.6481 -0.5995,-0.6643 -0.5995,-1.5069 0,-0.8911 0.5995,-1.5554 0.6157,-0.6644 1.4421,-0.6644 0.9235,0 1.5068,0.632 0.5996,0.6157 0.5996,1.442 z"
     id="path6" />
  <path
     d="m 45.5466,20.42569 q 0,3.59706 -2.2684,6.04371 -2.2685,2.44665 -5.266,2.44665 -1.3124,0 -2.5925,-0.40507 -1.2638,-0.40508 -2.3818,-1.0856 l -1.199,1.86334 -1.0046,-0.22684 q 0.081,-1.19902 0.1134,-2.88413 0.0324,-1.68511 0.0324,-3.2568 V 7.1068 q 0,-0.5509 -0.2592,-1.1018 Q 30.4778,5.4541 30.0889,5.2111 29.7811,5.0004 29.0519,4.9032 28.339,4.7898 27.9015,4.7574 v -1.037 l 5.8655,-0.3726 0.2269,0.243 v 10.5319 l 0.1134,0.0324 q 1.0046,-1.0694 2.1874,-1.6041 1.199,-0.5347 2.3494,-0.5347 2.949,0 4.9257,2.3333 1.9768,2.3332 1.9768,6.07609 z m -3.3864,0.11342 q 0,-1.19901 -0.2593,-2.44661 -0.2592,-1.2477 -0.8101,-2.1712 -0.5509,-0.9398 -1.4421,-1.5231 -0.8912,-0.5833 -2.1388,-0.5833 -1.1342,0 -1.993,0.4537 -0.8425,0.4374 -1.523,1.199 v 9.30049 q 0.0972,0.38887 0.3726,0.90737 0.2917,0.51849 0.7778,0.98838 0.4861,0.45368 1.1018,0.74533 0.6157,0.27545 1.5068,0.27545 1.9768,0 3.192,-1.91195 1.2153,-1.91195 1.2153,-5.23356 z"
     id="path8" />
  <path
     d="m 60.1617,14.5116 q 0,0.8264 -0.4051,1.4745 -0.4051,0.6319 -1.2476,0.6319 -0.9074,0 -1.3935,-0.4699 -0.4699,-0.4699 -0.4699,-1.037 0,-0.3565 0.0486,-0.6481 0.0648,-0.2917 0.1135,-0.5833 -0.7616,0 -1.7824,0.6157 -1.0208,0.6157 -1.7337,1.7499 v 9.30053 q 0,0.56711 0.2106,0.92357 0.2269,0.35647 0.6968,0.5347 0.405,0.16203 1.037,0.24304 0.6481,0.081 1.118,0.11343 v 1.06939 h -8.4256 v -1.06939 q 0.3727,-0.0324 0.7616,-0.0648 0.405,-0.0324 0.6967,-0.12962 0.4537,-0.14583 0.6643,-0.50229 0.2269,-0.37267 0.2269,-0.95598 V 15.8403 q 0,-0.5023 -0.2431,-0.9884 -0.2268,-0.4861 -0.6481,-0.7778 -0.3079,-0.1944 -0.7291,-0.2754 -0.4213,-0.0972 -0.9074,-0.1296 v -1.0532 l 5.3146,-0.3565 0.2268,0.2268 v 2.2523 h 0.081 q 1.0046,-1.3125 2.236,-1.993 1.2315,-0.6805 2.2523,-0.6805 1.0207,0 1.6527,0.6643 0.6481,0.6643 0.6481,1.7823 z"
     id="path10" />
  <path
     d="m 76.6725,28.13831 q -0.7615,0.27545 -1.3448,0.43748 -0.5671,0.17823 -1.2963,0.17823 -1.2638,0 -2.0254,-0.58331 Q 71.2607,27.5712 71.0501,26.437 h -0.0972 q -1.0532,1.16661 -2.2685,1.78232 -1.199,0.61572 -2.9003,0.61572 -1.7985,0 -2.9651,-1.10181 -1.1505,-1.1018 -1.1505,-2.88413 0,-0.92357 0.2593,-1.6527 0.2592,-0.72914 0.7777,-1.31244 0.4051,-0.48609 1.0694,-0.85876 0.6644,-0.38887 1.2477,-0.61571 0.7291,-0.27545 2.9489,-1.02079 2.236,-0.7453 3.0138,-1.1666 V 16.618 q 0,-0.2107 -0.0973,-0.8102 -0.081,-0.5995 -0.3726,-1.1342 -0.3241,-0.5995 -0.9236,-1.037 -0.5833,-0.4536 -1.6689,-0.4536 -0.7453,0 -1.3935,0.2592 -0.6319,0.243 -0.8911,0.5185 0,0.3241 0.1458,0.956 0.162,0.6319 0.162,1.1666 0,0.5671 -0.5185,1.037 -0.5023,0.4699 -1.4096,0.4699 -0.8102,0 -1.199,-0.5671 -0.3727,-0.5833 -0.3727,-1.2963 0,-0.7453 0.5185,-1.4258 0.5347,-0.6806 1.3772,-1.2153 0.7292,-0.4536 1.7662,-0.7615 1.0369,-0.3241 2.0253,-0.3241 1.3611,0 2.3657,0.1945 1.0208,0.1782 1.8471,0.7939 0.8264,0.5995 1.2476,1.6365 0.4375,1.0208 0.4375,2.6411 0,2.317 -0.0486,4.11556 -0.0486,1.78233 -0.0486,3.90492 0,0.63192 0.2106,1.00459 0.2269,0.37267 0.6806,0.63191 0.243,0.14583 0.7615,0.16203 0.5347,0.0162 1.0856,0.0162 z M 71.0177,19.5831 q -1.3773,0.4051 -2.4143,0.79398 -1.037,0.38887 -1.9281,0.97218 -0.8102,0.5509 -1.2801,1.31244 -0.4699,0.74534 -0.4699,1.78233 0,1.34485 0.6968,1.97676 0.7129,0.63192 1.7985,0.63192 1.1504,0 2.0254,-0.5509 0.8749,-0.56711 1.4744,-1.32865 z"
     id="path12" />
  <use
     xlink:href="#path10"
     transform="translate(30.332)"
     id="use18" />
  <path
     d="m 90.6557,33.64732 q 0,-0.81015 0.4375,-1.32864 0.4536,-0.50229 1.118,-0.50229 0.5185,0 0.8911,0.19443 0.3727,0.19444 0.6644,0.50229 0.243,0.24305 0.5185,0.66433 0.2754,0.42127 0.4374,0.69672 0.8102,-0.43748 1.9282,-2.28462 Q 97.785,29.7424 98.2873,28.34895 96.748,24.50884 95.5004,21.47888 94.2527,18.4489 92.8917,15.2083 92.5838,14.463 91.8547,14.0579 91.1256,13.6366 90.3964,13.5232 v -1.0694 h 7.2914 v 1.1342 q -0.4861,0.0162 -1.1666,0.2107 -0.6806,0.1782 -0.6806,0.4212 0,0.0972 0.0648,0.3241 0.0811,0.2268 0.1783,0.4699 0.6157,1.6041 1.8795,4.634 1.2639,3.0138 1.9606,4.82853 0.7291,-1.73371 1.5069,-3.58085 0.7939,-1.86338 1.7661,-4.39098 0.1134,-0.3079 0.3241,-0.8426 0.2106,-0.5509 0.2106,-0.9398 0,-0.4212 -0.7453,-0.7777 -0.7292,-0.3727 -1.3935,-0.4537 v -1.037 h 5.9303 v 1.0046 q -0.4861,0.081 -1.28,0.5671 -0.794,0.4699 -1.1829,1.3449 -1.9281,4.472 -3.435,8.15006 -1.4907,3.67808 -2.2684,5.41179 -1.0208,2.26842 -1.831,3.53225 -0.7939,1.28004 -1.5554,2.00917 -0.7454,0.68053 -1.3611,0.90737 -0.5995,0.24305 -1.2476,0.24305 -1.2639,0 -1.993,-0.59951 -0.7129,-0.59951 -0.7129,-1.37726 z"
     id="path16" />
  <path
     d="m 138.9082,19.2429 q -0.3889,0.0486 -1.0532,0.162 -0.6481,0.0972 -1.0532,0.2917 -0.4861,0.243 -0.6968,0.69668 -0.1944,0.43748 -0.1944,1.03699 v 1.78233 q 0,1.94436 0.016,2.62488 0.032,0.68053 0.065,1.11801 -2.155,0.97218 -4.2938,1.49068 -2.1388,0.51849 -4.1965,0.51849 -2.2036,0 -4.2452,-0.82635 -2.0416,-0.82635 -3.5647,-2.34943 -1.5393,-1.53929 -2.4466,-3.74289 -0.9074,-2.20359 -0.9074,-4.92569 0,-2.6249 0.8588,-4.8609 0.8749,-2.2522 2.4628,-3.9049 1.5393,-1.6203 3.6619,-2.5115 2.1388,-0.9074 4.5692,-0.9074 1.9444,0 3.3865,0.4699 1.442,0.4699 2.5438,1.1342 l 0.6643,-1.1018 h 1.2963 l 0.1458,8.0367 h -1.3286 q -0.3403,-1.3286 -0.8426,-2.6087 -0.5023,-1.2962 -1.2962,-2.317 -0.794,-1.0208 -1.9444,-1.6203 -1.1342,-0.6157 -2.7221,-0.6157 -1.7337,0 -3.0948,0.7129 -1.361,0.6967 -2.3656,2.0902 -0.9884,1.3448 -1.5231,3.354 -0.5347,2.0092 -0.5347,4.4883 0,2.1874 0.5185,4.13171 0.5347,1.92816 1.5393,3.33782 1.0046,1.44206 2.5115,2.26841 1.5068,0.82636 3.4188,0.82636 1.4259,0 2.5925,-0.43749 1.1828,-0.43748 1.6689,-0.92357 0.1296,-0.84255 0.1296,-1.70131 0.016,-0.85876 0.016,-1.45827 v -1.26383 q 0,-0.68052 -0.1944,-1.19902 -0.1783,-0.5347 -0.7616,-0.77771 -0.5347,-0.2431 -1.4582,-0.3565 -0.9074,-0.1296 -1.4259,-0.162 v -1.1828 h 10.0783 z"
     id="path18" />
  <path
     d="m 154.4792,24.67087 q -1.0046,1.91195 -2.6897,3.04616 -1.6851,1.13421 -3.8725,1.13421 -1.9281,0 -3.3864,-0.68053 -1.4421,-0.68052 -2.3818,-1.84714 -0.9398,-1.16661 -1.4097,-2.7221 -0.4537,-1.55548 -0.4537,-3.2892 0,-1.55547 0.4861,-3.04617 0.5023,-1.5069 1.4583,-2.7059 0.9235,-1.1504 2.2846,-1.8471 1.3773,-0.713 3.0786,-0.713 1.7499,0 2.9975,0.5509 1.2476,0.5509 2.0254,1.5069 0.7453,0.9074 1.1018,2.1388 0.3727,1.2314 0.3727,2.6735 v 1.0694 h -10.5806 q 0,1.57169 0.2917,2.85172 0.3078,1.28004 0.9559,2.25222 0.632,0.93977 1.6527,1.49067 1.0208,0.5347 2.4305,0.5347 1.4421,0 2.4791,-0.66432 1.0531,-0.68053 2.0253,-2.43045 z m -3.5808,-6.09227 q 0,-0.9074 -0.1621,-1.9444 -0.1458,-1.037 -0.4861,-1.7337 -0.3726,-0.7454 -1.0207,-1.2153 -0.6482,-0.4698 -1.6689,-0.4698 -1.7014,0 -2.8356,1.4258 -1.118,1.4097 -1.2152,3.9374 z"
     id="path20" />
  <path
     d="m 174.0038,28.42996 h -7.826 v -1.06939 q 0.3727,-0.0324 0.8101,-0.0648 0.4537,-0.0324 0.7454,-0.12962 0.4537,-0.14583 0.6643,-0.50229 0.2268,-0.37267 0.2268,-0.95598 V 17.493 q 0,-1.7013 -0.8101,-2.6249 -0.794,-0.9236 -1.9444,-0.9236 -0.8587,0 -1.5717,0.2755 -0.7129,0.2592 -1.2638,0.6481 -0.5347,0.3727 -0.8587,0.8101 -0.3079,0.4213 -0.4537,0.6806 v 9.18705 q 0,0.5509 0.2268,0.90737 0.2269,0.35646 0.6805,0.5509 0.3403,0.16203 0.7292,0.24304 0.405,0.081 0.8263,0.11343 v 1.06939 h -7.826 v -1.06939 q 0.3726,-0.0324 0.7615,-0.0648 0.4051,-0.0324 0.6967,-0.12962 0.4537,-0.14583 0.6644,-0.50229 0.2268,-0.37267 0.2268,-0.95598 v -9.8676 q 0,-0.5509 -0.243,-1.0046 -0.2269,-0.4699 -0.6482,-0.7615 -0.3078,-0.1945 -0.7291,-0.2755 -0.4213,-0.0972 -0.9074,-0.1296 v -1.0532 l 5.3146,-0.3565 0.2269,0.2269 v 2.2522 h 0.081 q 0.3888,-0.3889 0.9721,-0.9236 0.5834,-0.5509 1.1019,-0.8912 0.5995,-0.3888 1.4258,-0.6481 0.8264,-0.2592 1.8634,-0.2592 2.3008,0 3.4026,1.442 1.118,1.4259 1.118,3.8077 v 8.31218 q 0,0.5671 0.1944,0.92357 0.1945,0.34026 0.6643,0.5347 0.3889,0.16203 0.6644,0.22684 0.2916,0.0648 0.7939,0.0972 z"
     id="path22" />
  <use
     xlink:href="#path20"
     transform="translate(35.7114)"
     id="use28" />
  <path
     d="m 202.6183,20.60392 q 0.6643,0.58331 1.0208,1.34485 0.3564,0.76154 0.3564,1.86334 0,2.21981 -1.6689,3.62947 -1.6527,1.40966 -4.2938,1.40966 -1.3934,0 -2.5762,-0.50229 -1.1666,-0.5023 -1.6689,-0.92357 l -0.3241,1.05319 h -1.2152 l -0.1621,-5.55762 h 1.1181 q 0.1296,0.63191 0.5509,1.47447 0.4212,0.84255 1.0207,1.52308 0.632,0.71293 1.5069,1.19902 0.8912,0.48609 1.993,0.48609 1.5555,0 2.398,-0.69673 0.8426,-0.71293 0.8426,-2.02537 0,-0.68053 -0.2755,-1.16662 -0.2592,-0.50229 -0.7777,-0.87496 -0.5347,-0.37267 -1.3125,-0.66432 -0.7777,-0.30786 -1.7337,-0.59951 -0.7615,-0.22684 -1.7013,-0.61571 -0.9235,-0.40508 -1.5879,-0.93978 -0.7129,-0.56711 -1.1666,-1.39341 -0.4537,-0.8264 -0.4537,-1.9444 0,-1.9606 1.4583,-3.3216 1.4583,-1.3611 3.9049,-1.3611 0.9398,0 1.912,0.2431 0.9883,0.243 1.6041,0.5833 l 0.3726,-0.8426 h 1.1666 l 0.2431,5.1364 h -1.118 q -0.3403,-1.7175 -1.4745,-2.7869 -1.118,-1.0856 -2.7383,-1.0856 -1.3286,0 -2.0902,0.6643 -0.7615,0.6643 -0.7615,1.6041 0,0.7291 0.243,1.2152 0.2593,0.4861 0.7616,0.8264 0.4861,0.324 1.2152,0.6157 0.7453,0.2754 1.8309,0.6319 1.0694,0.3403 2.0092,0.7939 0.956,0.45372 1.5717,1.00462 z"
     id="path26" />
  <use
     xlink:href="#path6"
     transform="translate(186.788)"
     id="use32" />
  <use
     xlink:href="#path26"
     transform="translate(24.0452)"
     id="use34" />
  <path
     d="m 240.178,15.1565 h -9.76 v -1.4166 q 0.2812,-0.3229 0.7812,-0.7187 0.5,-0.4063 1.1874,-0.875 0.4167,-0.2812 1,-0.6146 0.5833,-0.3333 1.3229,-0.7291 0.8228,-0.4375 1.2603,-0.7708 0.4479,-0.3333 0.8125,-0.8229 0.2395,-0.3229 0.3854,-0.802 0.1458,-0.4896 0.1458,-1.3854 0,-1.302 -0.6979,-1.9061 -0.6979,-0.6146 -1.7916,-0.6146 -0.677,0 -1.2812,0.2708 -0.6041,0.2604 -0.9062,0.7292 0.073,0.3333 0.1771,0.7916 0.1146,0.4583 0.1146,0.8958 0,0.3958 -0.3333,0.7083 -0.3229,0.3021 -0.9687,0.3021 -0.5208,0 -0.8021,-0.3542 -0.2812,-0.3646 -0.2812,-0.9687 0,-0.5625 0.3125,-1.125 0.3125,-0.5728 0.8958,-1.052 0.5728,-0.4687 1.4166,-0.7604 0.8437,-0.2916 1.8228,-0.2916 2.1353,0 3.3853,0.9583 1.2603,0.9478 1.2603,2.5415 0,0.7604 -0.2291,1.3854 -0.2188,0.625 -0.7188,1.1041 -0.552,0.5312 -1.2916,0.9166 -0.7395,0.375 -2.2603,1.0521 -0.9062,0.4062 -1.6874,0.8541 -0.7812,0.4375 -1.2812,0.8541 h 8.0101 z"
     id="path32" />
  <path
     d="m 260,15.1565 h -6.531 v -0.7396 q 0.3542,-0.0104 0.9062,-0.0729 0.5625,-0.0625 0.7708,-0.1771 0.3229,-0.1979 0.4688,-0.4479 0.1562,-0.2603 0.1562,-0.6458 V 2.3237 h -0.1562 l -5.0415,12.5932 h -0.5208 L 245.2507,2.0633 h -0.1355 v 8.8226 q 0,1.2811 0.1563,1.9478 0.1666,0.6666 0.5,0.9583 0.2291,0.2187 0.9478,0.4166 0.7188,0.1979 0.9375,0.2083 v 0.7396 h -5.9685 v -0.7396 q 0.4687,-0.0417 0.9791,-0.1562 0.5208,-0.1146 0.8021,-0.3437 0.3645,-0.2917 0.5,-0.8958 0.1354,-0.6042 0.1354,-2.0208 V 3.4383 q 0,-0.6563 -0.1563,-1.0729 -0.1562,-0.4167 -0.4479,-0.6771 -0.3229,-0.2812 -0.7916,-0.4166 -0.4687,-0.1354 -0.927,-0.1563 V 0.3759 h 5.0414 l 4.229,11.0828 3.6144,-9.2704 q 0.1979,-0.5104 0.3333,-1.0624 0.1458,-0.5625 0.1563,-0.75 h 4.8227 v 0.7395 q -0.2917,0.0104 -0.75,0.0937 -0.4479,0.0834 -0.6562,0.1563 -0.3542,0.125 -0.4792,0.4166 -0.125,0.2917 -0.125,0.6354 v 10.6558 q 0,0.3646 0.125,0.6146 0.125,0.2499 0.4792,0.4374 0.1875,0.1042 0.6666,0.1979 0.4792,0.0834 0.7604,0.0937 z"
     id="path34" />
</svg>
